HIERARCHY
ROOT root
{
	OFFSET 0.000000 0.000000 0.000000
	CHANNELS 6 Xposition Yposition Zposition Zrotation Yrotation Xrotation
	JOINT lhip
	{
		OFFSET 0.058581 -0.082280 -0.017664
		CHANNELS 3 Zrotation Yrotation Xrotation
		JOINT lknee
		{
			OFFSET 0.043451 -0.386469 0.008037
			CHANNELS 3 Zrotation Yrotation Xrotation
			JOINT lankle
			{
				OFFSET -0.014790 -0.426874 -0.037428
				CHANNELS 3 Zrotation Yrotation Xrotation
				JOINT ltoe
				{
					OFFSET 0.041054 -0.060286 0.122042
					CHANNELS 3 Zrotation Yrotation Xrotation
					End Site
					{
						OFFSET 0.000000 0.000000 0.000000
					}
				}
			}
		}
	}
	JOINT rhip
	{
		OFFSET -0.060310 -0.090513 -0.013543
		CHANNELS 3 Zrotation Yrotation Xrotation
		JOINT rknee
		{
			OFFSET -0.043257 -0.383688 -0.004843
			CHANNELS 3 Zrotation Yrotation Xrotation
			JOINT rankle
			{
				OFFSET 0.019056 -0.420046 -0.034562
				CHANNELS 3 Zrotation Yrotation Xrotation
				JOINT rtoe
				{
					OFFSET -0.034840 -0.062106 0.130323
					CHANNELS 3 Zrotation Yrotation Xrotation
					End Site
					{
						OFFSET 0.000000 0.000000 0.000000
					}
				}
			}
		}
	}
	JOINT lowerback
	{
		OFFSET 0.004439 0.124404 -0.038385
		CHANNELS 3 Zrotation Yrotation Xrotation
		JOINT upperback
		{
			OFFSET 0.004488 0.137956 0.026820
			CHANNELS 3 Zrotation Yrotation Xrotation
			JOINT chest
			{
				OFFSET -0.002265 0.056032 0.002855
				CHANNELS 3 Zrotation Yrotation Xrotation
				JOINT lowerneck
				{
					OFFSET -0.013390 0.211636 -0.033468
					CHANNELS 3 Zrotation Yrotation Xrotation
					JOINT upperneck
					{
						OFFSET 0.010113 0.088937 0.050410
						CHANNELS 3 Zrotation Yrotation Xrotation
						End Site
						{
							OFFSET 0.000000 0.000000 0.000000
						}
					}
				}
				JOINT lclavicle
				{
					OFFSET 0.071702 0.114000 -0.018898
					CHANNELS 3 Zrotation Yrotation Xrotation
					JOINT lshoulder
					{
						OFFSET 0.122921 0.045205 -0.019046
						CHANNELS 3 Zrotation Yrotation Xrotation
						JOINT lelbow
						{
							OFFSET 0.255332 -0.015649 -0.022946
							CHANNELS 3 Zrotation Yrotation Xrotation
							JOINT lwrist
							{
								OFFSET 0.265709 0.012698 -0.007375
								CHANNELS 3 Zrotation Yrotation Xrotation
								End Site
								{
									OFFSET 0.000000 0.000000 0.000000
								}
							}
						}
					}
				}
				JOINT rclavicle
				{
					OFFSET -0.082954 0.112472 -0.023707
					CHANNELS 3 Zrotation Yrotation Xrotation
					JOINT rshoulder
					{
						OFFSET -0.113228 0.046853 -0.008472
						CHANNELS 3 Zrotation Yrotation Xrotation
						JOINT relbow
						{
							OFFSET -0.260127 -0.014369 -0.031269
							CHANNELS 3 Zrotation Yrotation Xrotation
							JOINT rwrist
							{
								OFFSET -0.269108 0.006794 -0.006027
								CHANNELS 3 Zrotation Yrotation Xrotation
								End Site
								{
									OFFSET 0.000000 0.000000 0.000000
								}
							}
						}
					}
				}
			}
		}
	}
}
MOTION
Frames: 13
Frame Time: 0.033333
1.498636 0.474387 1.028870 -94.081240 -1.825197 85.459334 -7.975713 -3.287271 3.289899 -2.062816 -4.284062 1.918887 5.582974 12.451225 -8.744246 0.000000 -0.000000 0.000000 -2.046455 3.902318 -5.175558 3.019158 5.504729 57.037879 10.472508 -3.088878 1.372232 0.000000 -0.000000 0.000000 -1.661835 -0.170677 11.786200 -1.380076 -3.099169 1.478973 -1.606089 -1.209673 3.528832 -3.861646 6.317515 -2.409276 -2.935389 7.883348 3.474746 -17.987843 -5.801713 -6.000514 -58.667511 -13.885326 11.685173 8.701036 -18.489595 2.589768 -8.667936 -7.623871 5.299079 12.574174 1.143515 -7.107508 43.050549 5.750973 19.589576 19.237473 72.428484 41.628991 31.258305 14.810995 -5.020233 
1.466183 0.471335 1.030591 -92.235654 -0.690839 85.542210 -7.091053 -2.033087 6.712436 -1.475504 -6.429736 -0.533596 4.898638 11.446597 -9.356837 0.000000 -0.000000 0.000000 -1.427885 4.694757 -9.425405 1.835118 2.535941 56.055949 9.153384 -4.362355 -3.866256 0.000000 -0.000000 0.000000 -0.597668 -1.789561 11.842362 -1.066697 -2.824074 1.516829 -1.291856 -1.535210 3.194867 -3.509721 6.420237 -2.184372 -2.695888 7.310269 2.874740 -17.371940 -7.453921 -6.126966 -60.076928 -16.510870 13.030759 8.712444 -20.244373 4.357238 -11.493719 -6.740330 3.976618 11.845675 1.781895 -6.457041 43.146870 5.353598 19.090804 19.606249 73.282967 43.178226 31.333824 16.335296 -7.023164 
1.435601 0.468661 1.030474 -90.123799 0.026610 85.630962 -6.562313 -1.299549 9.203378 -0.956886 -8.322443 -1.486475 4.129396 10.459078 -10.234847 0.000000 -0.000000 0.000000 -1.611383 4.941549 -13.186309 0.120820 -0.508486 52.741974 8.360077 -5.179812 -9.014973 0.000000 -0.000000 0.000000 -0.104579 -2.691411 12.305726 -0.776850 -2.785657 0.996621 -0.827424 -1.763214 3.116612 -1.985396 6.768321 -1.511976 -2.567893 5.419151 2.252392 -16.070130 -8.867730 -5.797603 -62.101699 -19.789912 15.085147 8.308995 -22.416644 5.623134 -8.277114 -7.919066 2.281931 11.726410 1.497863 -6.066292 42.489844 6.035655 18.182647 22.988810 72.600401 47.261115 17.319702 18.677282 -5.520974 
1.399489 0.466684 1.028105 -88.421864 0.067799 85.922627 -6.771372 -0.175825 10.731929 -0.725783 -9.467989 -0.425640 4.419895 10.282209 -12.946153 0.000000 -0.000000 0.000000 -2.530955 5.289549 -17.221391 -1.516065 -2.686379 45.325559 8.404818 -7.183584 -13.022222 0.000000 -0.000000 0.000000 -0.386138 -3.731583 14.311727 -0.612287 -2.314655 -1.186364 -0.227634 -2.554966 4.522103 -1.564770 6.875401 -4.855562 -1.848917 4.831784 2.798861 -14.791692 -7.803123 -7.746125 -64.414942 -23.125992 18.127504 7.863735 -27.262426 7.720895 -9.859366 -8.230547 -1.037291 10.940065 0.256959 -7.875393 43.626117 7.847558 19.315930 22.382331 73.425917 44.531835 21.002026 14.827686 -9.294085 
1.375457 0.466102 1.025236 -86.890532 0.564510 85.871313 -6.052951 0.146051 12.031891 -0.650204 -9.557772 0.374533 2.138556 9.813254 -14.541026 0.000000 -0.000000 0.000000 -2.347472 4.948071 -17.858304 -3.032600 -4.404869 38.405481 8.873436 -7.572596 -13.990629 0.000000 -0.000000 0.000000 -0.143753 -3.880523 14.345684 -0.285318 -2.827670 -0.477684 0.179290 -2.634011 3.930684 -1.049514 6.634622 -4.526545 -1.457959 4.050684 2.254741 -14.034762 -9.197938 -7.363720 -65.092715 -24.397517 19.459634 8.439906 -30.313878 7.344729 -8.349871 -9.058723 -1.758757 10.361824 0.823777 -7.028701 43.536532 7.528167 18.618193 19.276589 74.493236 40.291236 23.180302 13.975860 -11.121205 
1.343423 0.466518 1.022704 -85.660053 0.940720 85.864733 -5.191568 0.916085 13.955699 -0.813747 -10.258842 0.616540 2.121119 9.396934 -15.707407 0.000000 -0.000000 0.000000 -1.806547 4.030684 -17.859973 -4.229726 -5.345023 26.993146 8.664311 -8.971520 -13.836030 0.000000 -0.000000 0.000000 0.113008 -4.062857 15.010404 -0.412051 -2.795542 -1.093225 0.616549 -2.936707 4.497470 -1.072640 6.052951 -5.210525 -0.329910 3.908604 1.793281 -13.985126 -8.693752 -7.165103 -65.294283 -27.167480 20.362383 7.051436 -34.025631 9.972472 -6.674263 -10.822152 -3.500705 10.802798 0.469290 -6.703524 42.532454 7.992645 18.794594 18.983514 73.201360 43.391490 13.557578 19.461686 -4.477920 
1.309543 0.466838 1.018760 -84.751367 0.753315 86.333274 -4.418681 2.742033 15.588842 -0.856414 -10.472559 0.351266 1.359826 7.534052 -15.851622 0.000000 -0.000000 0.000000 -1.573025 2.109663 -17.508916 -4.240787 -5.183798 14.527848 8.778750 -9.036505 -12.227421 0.000000 -0.000000 0.000000 0.036362 -3.757927 14.307946 -0.692539 -3.156415 -0.553794 0.845665 -2.920760 4.195737 -0.927057 5.429741 -4.981999 0.860513 3.619483 1.235309 -13.495873 -9.460786 -6.903749 -65.583325 -27.652975 21.049754 7.813190 -37.608723 10.409246 -5.263240 -11.103059 -3.633067 10.409238 0.866016 -6.405741 43.396198 7.705522 17.995240 16.097281 73.228151 39.080028 17.439519 15.648759 -8.201808 
1.274955 0.467830 1.014957 -84.359221 0.499197 87.078066 -3.304115 4.207221 17.042053 -1.554273 -10.302205 0.093987 -0.559229 5.438126 -15.449508 0.000000 -0.000000 0.000000 -1.298455 0.086822 -17.173587 -3.013067 -5.435219 3.557795 10.501974 -6.151496 -10.774144 0.000000 -0.000000 0.000000 0.044224 -3.533628 13.645470 -1.066675 -3.532730 -0.680505 0.977615 -2.585197 3.840830 -1.189633 4.998825 -4.577019 2.016309 3.077686 0.838501 -13.489969 -9.223269 -6.627901 -66.046471 -27.738762 20.934154 7.851126 -40.259228 10.885412 -8.640045 -12.306611 -3.006769 10.531816 1.011391 -5.326243 43.387666 7.519357 16.605134 16.144894 73.170034 39.834032 22.360604 16.461363 -6.795496 
1.239193 0.469780 1.011317 -84.028624 0.356006 87.395144 -2.293873 5.243409 18.352735 -1.904595 -10.872792 1.217562 -1.679666 4.246015 -15.654583 0.000000 -0.000000 0.000000 -0.812891 -1.078418 -16.714841 -1.837031 -6.367024 -2.276152 12.260862 -3.770574 -9.528370 0.000000 -0.000000 0.000000 -0.009308 -3.218052 12.803593 -1.220016 -3.519939 0.084637 1.082492 -2.515049 3.465794 -1.008715 4.425794 -4.899041 2.388892 2.293562 0.616314 -13.401834 -8.984337 -7.007125 -66.695689 -26.854203 21.503548 7.744929 -41.737518 10.815163 -6.816743 -11.837012 -3.070662 10.602382 0.872611 -5.445398 43.409930 7.306731 16.017657 16.902033 73.151619 40.038572 24.876851 15.060185 -6.628741 
1.192599 0.473751 1.007683 -83.947986 0.447355 87.173234 -1.572914 4.993595 20.079087 -1.984395 -11.593361 4.023149 -3.328516 4.338676 -15.971399 0.000000 -0.000000 0.000000 0.346282 0.369842 -17.356482 -2.615150 -6.983238 2.140689 11.210291 -5.669036 -9.553276 0.000000 -0.000000 0.000000 -0.077548 -3.784112 12.568081 -1.233956 -2.852544 0.405820 1.004571 -2.447794 3.282662 -0.791533 4.100649 -5.296718 2.230061 2.276356 0.432456 -13.863689 -7.965308 -6.497354 -66.760754 -25.159950 20.926354 8.024421 -42.857392 11.526089 -8.446295 -12.017384 -3.964736 10.695789 1.104485 -5.220765 43.659885 7.451252 16.252931 14.826203 72.666991 38.676207 24.200455 15.073101 -6.213494 
1.151598 0.477109 1.005691 -83.213891 0.778474 86.594800 -0.491469 4.638982 21.278713 -2.451229 -13.048136 7.943033 -4.990433 4.291674 -15.800462 0.000000 -0.000000 0.000000 1.679739 1.992852 -16.128755 -3.511193 -6.362062 6.403653 8.876477 -7.788229 -8.898023 0.000000 -0.000000 0.000000 -0.017593 -4.554609 12.376335 -0.970234 -2.733658 0.751578 0.939063 -2.411342 3.177242 -0.424279 3.819249 -5.358156 1.725617 2.577098 0.114324 -14.561283 -6.609291 -5.892872 -66.387408 -23.322104 20.185398 7.239784 -42.602864 12.397093 -7.856186 -12.092357 -5.053299 10.727525 0.857248 -5.605557 44.058745 7.331971 16.921066 14.726964 72.483523 39.043459 24.333227 15.153890 -6.484077 
1.110333 0.481566 1.005676 -82.575280 1.103644 87.263745 0.261202 3.932394 19.470970 -3.562827 -14.149785 14.696893 -4.858248 4.684135 -14.143123 0.000000 -0.000000 0.000000 2.702065 2.217414 -15.317405 -3.288286 -3.529501 6.641681 7.079275 -6.927870 -5.921697 0.000000 -0.000000 0.000000 0.707389 -4.559755 10.118396 -0.527042 -3.017041 2.115288 0.329517 -2.807726 2.441980 0.122942 3.488693 -4.412764 0.729162 2.824454 -1.104688 -16.228904 -5.193585 -4.489863 -64.366263 -20.611124 17.286769 4.220322 -42.245101 16.420961 -4.101510 -12.210618 -7.481055 10.923123 -0.139156 -4.938342 45.069633 8.509292 17.647244 13.089146 71.995735 37.954460 18.109441 12.952751 -6.970754 
1.067611 0.485189 1.008238 -83.165048 1.571661 87.292666 0.922607 3.839463 16.911257 -4.842280 -12.591925 23.308796 -6.057948 4.563119 -9.471761 0.000000 -0.000000 0.000000 3.633698 2.746644 -14.561055 -2.619642 -1.705630 9.751054 3.891579 -6.919118 -5.313400 0.000000 -0.000000 0.000000 1.098948 -4.289936 9.050859 -0.027685 -2.593882 2.552250 0.176521 -2.733887 2.418117 0.531475 3.195270 -4.877633 -0.077635 3.499008 -1.431043 -17.766246 -3.073422 -4.128142 -63.883891 -17.768871 16.051691 3.792590 -39.032109 17.278452 -3.754887 -12.345792 -6.693736 11.546547 -1.162530 -4.884808 44.779543 8.889973 17.447786 14.423143 71.097699 40.764112 16.565359 14.853253 -6.720121 
